<?xml version="1.0" standalone="no"?>
<!DOCTYPE svg PUBLIC "-//W3C//DTD SVG 20010904//EN"
 "http://www.w3.org/TR/2001/REC-SVG-20010904/DTD/svg10.dtd">
<svg version="1.0" xmlns="http://www.w3.org/2000/svg"
 width="700.000000pt" height="700.000000pt" viewBox="0 0 700.000000 700.000000"
 preserveAspectRatio="xMidYMid meet">
<metadata>
Created by potrace 1.11, written by Peter Selinger 2001-2013
</metadata>
<g transform="translate(0.000000,700.000000) scale(0.100000,-0.100000)"
fill="#000000" stroke="none">
<path d="M3300 6964 c-254 -30 -479 -105 -845 -284 -208 -101 -312 -160 -430
-244 -705 -499 -1096 -1353 -1022 -2235 37 -445 217 -896 496 -1246 62 -77 58
-72 156 -176 108 -113 328 -379 475 -573 43 -57 240 -323 269 -365 169 -237
271 -399 641 -1016 194 -324 358 -596 365 -603 10 -11 22 3 66 70 29 46 107
166 174 268 214 327 289 441 430 660 77 118 162 247 190 287 27 40 82 118 120
175 67 97 290 412 307 433 5 6 61 80 125 165 64 85 137 180 162 211 25 31 58
71 73 90 14 19 36 45 48 59 274 308 538 779 636 1135 28 101 37 133 40 148 2
10 5 26 8 35 3 9 8 33 11 52 3 19 8 42 10 50 2 8 6 35 9 60 3 25 8 56 11 70 3
14 8 68 11 120 18 253 1 484 -51 705 -23 97 -67 250 -85 290 -4 11 -27 65 -51
120 -23 55 -51 116 -62 135 -11 19 -27 49 -35 65 -91 180 -335 478 -528 646
-154 132 -327 252 -499 344 -49 26 -95 51 -100 56 -26 20 -267 135 -366 174
-100 41 -260 90 -328 101 -14 3 -31 6 -38 9 -52 18 -270 23 -393 9z m225
-1178 c38 -9 88 -23 110 -30 166 -57 477 -206 562 -271 193 -145 340 -385 408
-668 31 -127 40 -211 40 -372 0 -187 -20 -313 -76 -473 -62 -176 -154 -318
-292 -449 -420 -396 -980 -458 -1482 -163 -221 130 -436 366 -538 590 -55 121
-77 196 -104 350 -11 67 -5 265 11 343 62 291 187 490 506 805 213 210 378
316 544 348 10 2 21 5 23 8 11 11 224 -2 288 -18z"/>
</g>
</svg>
